<svg width="36" height="36" viewBox="0 0 36 36" fill="none" xmlns="http://www.w3.org/2000/svg">
<path d="M21.0375 1.2374C11.8125 -0.393851 2.92497 5.7374 1.29372 14.9624C0.449968 19.4061 1.46247 23.9624 4.04997 27.6749C6.63747 31.4436 10.5187 33.9186 14.9625 34.7624C15.975 34.9311 16.9875 35.0436 18 35.0436C26.0437 35.0436 33.2437 29.2499 34.7625 21.0374C36.3937 11.8124 30.2625 2.9249 21.0375 1.2374ZM32.2312 20.5874C32.175 21.0374 32.0625 21.4874 31.95 21.8811L19.2375 17.0999V3.5999C19.6875 3.65615 20.1375 3.7124 20.5312 3.76865C28.4062 5.1749 33.6375 12.7124 32.2312 20.5874ZM16.7062 3.5999V16.7624H3.59997C3.65622 16.3124 3.71247 15.8624 3.76872 15.4124C4.94997 8.83115 10.4062 4.10615 16.7062 3.5999ZM15.4125 32.2311C11.5875 31.5561 8.32497 29.4186 6.13122 26.2124C4.66872 24.1311 3.82497 21.7124 3.59997 19.2374H17.775L31.05 24.2436C28.2937 29.9811 21.9375 33.4686 15.4125 32.2311Z" fill="white"/>
</svg>
