<svg width="36" height="36" viewBox="0 0 36 36" fill="none" xmlns="http://www.w3.org/2000/svg">
<path d="M12.2062 1.9126H5.06245C3.14995 1.9126 1.57495 3.4876 1.57495 5.4001V12.5438C1.57495 14.4563 3.14995 16.0313 5.06245 16.0313H12.2062C14.1187 16.0313 15.6937 14.4563 15.6937 12.5438V5.45635C15.75 3.4876 14.175 1.9126 12.2062 1.9126ZM13.2187 12.6001C13.2187 13.1626 12.7687 13.6126 12.2062 13.6126H5.06245C4.49995 13.6126 4.04995 13.1626 4.04995 12.6001V5.45635C4.04995 4.89385 4.49995 4.44385 5.06245 4.44385H12.2062C12.7687 4.44385 13.2187 4.89385 13.2187 5.45635V12.6001Z" fill="white"/>
<path d="M30.9374 1.9126H23.7937C21.8812 1.9126 20.3062 3.4876 20.3062 5.4001V12.5438C20.3062 14.4563 21.8812 16.0313 23.7937 16.0313H30.9374C32.8499 16.0313 34.4249 14.4563 34.4249 12.5438V5.45635C34.4249 3.4876 32.8499 1.9126 30.9374 1.9126ZM31.9499 12.6001C31.9499 13.1626 31.4999 13.6126 30.9374 13.6126H23.7937C23.2312 13.6126 22.7812 13.1626 22.7812 12.6001V5.45635C22.7812 4.89385 23.2312 4.44385 23.7937 4.44385H30.9374C31.4999 4.44385 31.9499 4.89385 31.9499 5.45635V12.6001Z" fill="white"/>
<path d="M12.2062 19.8564H5.06245C3.14995 19.8564 1.57495 21.4314 1.57495 23.3439V30.4877C1.57495 32.4002 3.14995 33.9752 5.06245 33.9752H12.2062C14.1187 33.9752 15.6937 32.4002 15.6937 30.4877V23.4002C15.75 21.4314 14.175 19.8564 12.2062 19.8564ZM13.2187 30.5439C13.2187 31.1064 12.7687 31.5564 12.2062 31.5564H5.06245C4.49995 31.5564 4.04995 31.1064 4.04995 30.5439V23.4002C4.04995 22.8377 4.49995 22.3877 5.06245 22.3877H12.2062C12.7687 22.3877 13.2187 22.8377 13.2187 23.4002V30.5439Z" fill="white"/>
<path d="M30.9374 19.8564H23.7937C21.8812 19.8564 20.3062 21.4314 20.3062 23.3439V30.4877C20.3062 32.4002 21.8812 33.9752 23.7937 33.9752H30.9374C32.8499 33.9752 34.4249 32.4002 34.4249 30.4877V23.4002C34.4249 21.4314 32.8499 19.8564 30.9374 19.8564ZM31.9499 30.5439C31.9499 31.1064 31.4999 31.5564 30.9374 31.5564H23.7937C23.2312 31.5564 22.7812 31.1064 22.7812 30.5439V23.4002C22.7812 22.8377 23.2312 22.3877 23.7937 22.3877H30.9374C31.4999 22.3877 31.9499 22.8377 31.9499 23.4002V30.5439Z" fill="white"/>
</svg>
