<svg width="36" height="36" viewBox="0 0 36 36" fill="none" xmlns="http://www.w3.org/2000/svg">
<path d="M30.2625 10.6312C27.1687 7.36875 22.8375 5.34375 18 5.34375C8.6062 5.34375 1.01245 12.9937 1.01245 22.3875C1.01245 25.0312 1.6312 27.6187 2.7562 29.925C2.92495 30.2625 3.2062 30.4875 3.5437 30.6C3.6562 30.6 3.71245 30.6562 3.82495 30.6562C3.82495 30.6562 3.82495 30.6562 3.8812 30.6562C3.8812 30.6562 3.8812 30.6562 3.93745 30.6562C3.9937 30.6562 4.04995 30.6562 4.1062 30.6562C4.2187 30.6562 4.38745 30.6 4.49995 30.5437L6.8062 29.4187C7.42495 29.1375 7.7062 28.35 7.3687 27.7312C7.0312 27.1125 6.29995 26.8312 5.6812 27.1687L4.5562 27.7312C3.8812 26.1 3.59995 24.3562 3.5437 22.5562H5.9062C6.5812 22.5562 7.19995 21.9937 7.19995 21.2625C7.19995 20.5312 6.63745 19.9687 5.9062 19.9687H3.71245C4.1062 17.4937 5.17495 15.2437 6.6937 13.3875L8.7187 15.4125C8.9437 15.6375 9.2812 15.8062 9.6187 15.8062C9.9562 15.8062 10.2937 15.6937 10.5187 15.4125C11.025 14.9062 11.025 14.1187 10.5187 13.6125L8.43745 11.5312C10.6875 9.5625 13.5562 8.2125 16.7625 7.9875V11.4187C16.7625 12.0937 17.325 12.7125 18.0562 12.7125C18.7312 12.7125 19.35 12.15 19.35 11.4187V7.9875C22.5 8.26875 25.425 9.5625 27.675 11.5312L26.1 13.1062C25.5937 13.6125 25.5937 14.4 26.1 14.9062C26.325 15.1312 26.6625 15.3 27 15.3C27.3375 15.3 27.675 15.1875 27.9 14.9062L29.4187 13.3875C30.9375 15.2437 31.95 17.4937 32.4 19.9687H30.2062C29.5312 19.9687 28.9125 20.5312 28.9125 21.2625C28.9125 21.9937 29.475 22.5562 30.2062 22.5562H32.5687C32.5687 24.3562 32.2312 26.1 31.5562 27.7875L30.4312 27.225C29.8125 26.8875 29.025 27.1687 28.7437 27.7875C28.4625 28.4062 28.6875 29.1937 29.3062 29.475L31.6125 30.6C31.7812 30.7125 32.0062 30.7125 32.175 30.7125C32.175 30.7125 32.175 30.7125 32.2312 30.7125C32.2312 30.7125 32.2312 30.7125 32.2875 30.7125C32.7375 30.7125 33.1875 30.4312 33.4125 30.0375C34.5937 27.7312 35.1562 25.0875 35.1562 22.5C35.0437 17.8312 33.1875 13.6687 30.2625 10.6312Z" fill="white"/>
<path d="M21.4311 19.3499L17.6624 22.1624C16.9874 22.2749 16.3686 22.6687 15.9749 23.2312C15.9186 23.3437 15.8624 23.3999 15.8061 23.5124L15.6936 23.6249H15.7499C15.1311 24.8062 15.4686 26.2687 16.5936 27.1124C17.7186 27.8999 19.2374 27.7874 20.1374 26.8312H20.1936L20.2499 26.7187C20.3061 26.6624 20.4186 26.5499 20.4749 26.4374C20.9249 25.8749 21.0374 25.1437 20.9811 24.4687L22.4436 19.9687C22.6124 19.4624 21.9374 19.0124 21.4311 19.3499Z" fill="white"/>
</svg>
