<svg width="36" height="36" viewBox="0 0 36 36" fill="none" xmlns="http://www.w3.org/2000/svg">
<path d="M30.0937 21.8251L29.6437 21.6001L30.2062 21.2626C31.3312 20.5876 31.9499 19.4063 31.9499 18.0563C31.9499 16.7626 31.2187 15.5813 30.0937 14.9063L28.9124 14.2313L30.2062 13.4438C31.3312 12.7688 31.9499 11.5876 31.9499 10.2376C31.9499 8.94385 31.2187 7.7626 30.0937 7.14385L19.9124 1.4626C18.7874 0.843848 17.3812 0.843848 16.3124 1.4626L5.8499 7.5376C4.7249 8.2126 4.0499 9.39385 4.0499 10.6876C4.0499 11.9813 4.7249 13.2188 5.8499 13.8376L7.0874 14.5688L5.8499 15.3001C4.7249 15.9751 4.0499 17.1563 4.0499 18.4501C4.0499 19.7438 4.7249 20.9813 5.8499 21.6001L6.35615 21.8813L5.8499 22.1626C4.7249 22.8376 3.99365 24.0188 3.99365 25.3126C3.99365 26.6626 4.66865 27.8438 5.79365 28.4626L16.1437 34.4813C16.7062 34.8188 17.3249 34.9876 17.9999 34.9876C18.6749 34.9876 19.3499 34.8188 19.9124 34.4251L30.2624 28.1251C31.3874 27.4501 32.0062 26.2688 32.0062 24.9188C31.9499 23.6251 31.2749 22.4438 30.0937 21.8251ZM6.5249 10.6876C6.5249 10.5188 6.58115 10.0126 7.0874 9.73135L17.5499 3.65635C17.8874 3.43135 18.3374 3.43135 18.6749 3.65635L28.9124 9.3376C29.4187 9.61885 29.4749 10.1251 29.4749 10.2938C29.4749 10.4626 29.4187 10.9688 28.9124 11.3063L18.6187 17.6626C18.2812 17.8876 17.8312 17.8876 17.4374 17.6626L7.0874 11.6438C6.58115 11.3626 6.5249 10.8563 6.5249 10.6876ZM7.0874 17.4938L9.5624 16.0313L16.1437 19.8563C16.7062 20.1938 17.3249 20.3626 17.9999 20.3626C18.6749 20.3626 19.3499 20.1938 19.9124 19.8001L26.4374 15.8063L28.8562 17.1563C29.3624 17.4376 29.4187 17.9438 29.4187 18.1126C29.4187 18.2813 29.3624 18.7876 28.8562 19.1251L18.6187 25.4251C18.2812 25.6501 17.8312 25.6501 17.4374 25.4251L7.0874 19.4063C6.58115 19.1251 6.5249 18.6188 6.5249 18.4501C6.5249 18.2813 6.58115 17.7751 7.0874 17.4938ZM28.9124 25.9876L18.6187 32.3438C18.2812 32.5688 17.8312 32.5688 17.4374 32.3438L7.0874 26.3251C6.58115 26.0438 6.5249 25.5376 6.5249 25.3688C6.5249 25.2001 6.58115 24.6938 7.0874 24.4126L8.83115 23.4001L16.1999 27.6751C16.7624 28.0126 17.3812 28.1813 18.0562 28.1813C18.7312 28.1813 19.4062 28.0126 19.9687 27.6188L27.2249 23.1751L28.9124 24.0751C29.4187 24.3563 29.4749 24.8626 29.4749 25.0313C29.4749 25.2001 29.4187 25.7063 28.9124 25.9876Z" fill="white"/>
</svg>
