<svg width="36" height="36" viewBox="0 0 36 36" fill="none" xmlns="http://www.w3.org/2000/svg">
<path d="M4.72489 16.3124C4.89364 16.3124 5.11864 16.2562 5.28739 16.1999L11.5311 14.0062C12.2061 13.7812 12.5436 13.0499 12.3186 12.3749C12.0936 11.6999 11.3624 11.3624 10.6874 11.5874L6.80614 12.9374C8.66239 8.0999 13.3874 4.8374 18.7874 4.8374C24.6936 4.8374 29.8124 8.7749 31.2749 14.3999C31.4436 15.0749 32.1186 15.4687 32.7936 15.2999C33.4686 15.1312 33.8624 14.4562 33.6936 13.7812C31.9499 7.03115 25.8186 2.30615 18.7311 2.30615C12.4311 2.30615 6.86239 6.01865 4.55614 11.5874L3.37489 8.2124C3.14989 7.5374 2.41864 7.1999 1.74364 7.4249C1.06864 7.6499 0.731136 8.38115 0.956136 9.05615L3.09364 15.1874C3.43114 15.9187 4.04989 16.3124 4.72489 16.3124Z" fill="white"/>
<path d="M34.9312 27.9562L32.6249 21.9375C32.4562 21.5437 32.1749 21.2062 31.7812 21.0375C31.3874 20.8687 30.9374 20.8687 30.5437 21.0375L24.3562 23.3999C23.6812 23.6249 23.3999 24.3562 23.6249 25.0312C23.8499 25.7062 24.5812 25.9875 25.2562 25.7625L29.1374 24.3C26.8874 28.4062 22.4999 31.1062 17.6062 31.1062C12.0374 31.1062 7.14369 27.6187 5.39994 22.4437C5.17494 21.7687 4.44369 21.4312 3.82494 21.6562C3.14994 21.8812 2.81244 22.6124 3.03744 23.2312C5.11869 29.4187 10.9687 33.5812 17.6062 33.5812C23.3999 33.5812 28.6312 30.375 31.2749 25.425L32.5687 28.8562C32.7374 29.3625 33.2437 29.6437 33.7499 29.6437C33.9187 29.6437 34.0312 29.6437 34.1999 29.5312C34.8749 29.3625 35.1562 28.6312 34.9312 27.9562Z" fill="white"/>
</svg>
