<svg width="12" height="6" viewBox="0 0 12 6" fill="none" xmlns="http://www.w3.org/2000/svg">
<path d="M10.6921 0.392384C10.7588 0.325683 10.854 0.325683 10.9207 0.392384C10.9868 0.458901 10.9867 0.553377 10.9207 0.619923L5.89136 5.56231L5.8894 5.56426C5.84918 5.60448 5.82119 5.62431 5.80347 5.63359C5.78923 5.64105 5.7816 5.64137 5.77515 5.64141C5.73284 5.64141 5.696 5.63169 5.63843 5.58672L0.628662 0.663868H0.629639C0.562938 0.597168 0.562938 0.502053 0.629639 0.435352C0.679657 0.385612 0.745545 0.373215 0.803467 0.398243L0.858154 0.435352L0.861084 0.438282L5.54175 5.01055L5.77612 5.23906L6.00854 5.00957L10.6902 0.39336L10.6921 0.392384Z" fill="#111928" stroke="#111928" stroke-width="0.666667"/>
</svg>
