<?xml version="1.0" encoding="utf-8"?><svg width="186" height="41" fill="none" xmlns="http://www.w3.org/2000/svg" viewBox="0 0 186 41"><path d="M7.117 19.68h3.48c.264 0 .316-.093.316-.238 0-.396-1.12-3.678-1.753-4.904-.066-.145-.185-.303-.264-.303-.105 0-.184.158-.263.303-.58 1.16-1.82 4.574-1.82 4.904 0 .145.066.237.304.237Zm-4.311 3.782 4.008-10.44c.342-.936.566-1.872.685-2.57.185-.91 2.201-1.807 3.058-1.807.699 0 .936.488 1.187 1.16l5.312 13.684a4.187 4.187 0 0 0 1.16 1.687c.264.238.686.567.686.989 0 .712-.514.883-1.556.883-.712 0-1.357-.066-2.597-.066-1.239 0-1.924.066-2.702.066s-1.147-.303-1.147-.817c0-.752 1.556-1.028 1.556-2.228 0-.21-.33-1.2-.594-1.674-.092-.172-.303-.303-.566-.303H6.72c-.343 0-.593.131-.751.303-.264.395-.699 1.437-.699 1.885 0 1.16 1.371 1.331 1.371 2.083 0 .422-.25.751-1.107.751-.567 0-1.53-.066-2.136-.066-.62 0-1.015.066-1.595.066-.567 0-.87-.263-.87-.738 0-.83 1.068-.765 1.872-2.848Zm23.821-7.514c-1.278 0-2.53 1.345-2.53 4.298 0 3.981 1.107 4.759 2.385 4.759 1.332 0 2.65-1.266 2.65-4.561 0-3.23-1.094-4.495-2.505-4.495Zm6.605 3.929c0 4.495-2.703 7.369-6.09 7.369-1.833 0-2.466-.896-2.743-.896-.171 0-.237.184-.237.724v1.661c0 1.121.514 1.424 1.028 1.806.435.304.99.502.99 1.095 0 .461-.251.764-1.016.764-.672 0-2.017-.066-2.755-.066-.897 0-1.727.066-2.676.066-.646 0-.857-.33-.857-.712 0-.58.488-.87.738-1.12.646-.686.738-1.358.738-2.043V17.478c0-.778-.487-1.081-.883-1.253-.277-.171-.514-.342-.514-.698 0-.673.817-.791 1.832-1.226 1.292-.594 1.648-.884 2.123-.884.488 0 .764.211.949.884.105.514.184 1.054.395 1.054.304 0 1.385-2.017 3.981-2.017 3.217 0 4.997 2.73 4.997 6.539Zm8.715-3.928c-1.279 0-2.531 1.344-2.531 4.297 0 3.981 1.107 4.759 2.386 4.759 1.331 0 2.65-1.266 2.65-4.561 0-3.23-1.095-4.495-2.505-4.495Zm6.604 3.928c0 4.495-2.702 7.369-6.09 7.369-1.832 0-2.465-.896-2.742-.896-.171 0-.237.184-.237.724v1.661c0 1.121.514 1.424 1.028 1.806.435.304.989.502.989 1.095 0 .461-.25.764-1.015.764-.673 0-2.017-.066-2.756-.066-.896 0-1.727.066-2.676.066-.646 0-.856-.33-.856-.712 0-.58.487-.87.738-1.12.646-.686.738-1.358.738-2.043V17.478c0-.778-.488-1.081-.883-1.253-.277-.171-.514-.342-.514-.698 0-.673.817-.791 1.832-1.226 1.292-.594 1.648-.884 2.122-.884.488 0 .765.211.95.884.105.514.184 1.054.395 1.054.303 0 1.384-2.017 3.981-2.017 3.217 0 4.996 2.73 4.996 6.539Zm8.399-3.493c-1.055 0-1.859 1.384-1.859 2.662v4.14c0 1.041.211 1.476.95 2.03.434.33 1.186.461 1.186 1.068 0 .448-.237.764-1.015.764-.765 0-1.661-.066-2.966-.066-.897 0-1.45.066-2.57.066-.647 0-.858-.33-.858-.725 0-.567.488-.857.739-1.107.645-.686.724-1.371.724-2.044v-5.694c0-.765-.474-1.081-.87-1.253-.276-.171-.514-.342-.514-.698 0-.673.818-.791 1.82-1.226 1.305-.594 1.66-.884 2.122-.884.488 0 .764.211.95.884.105.514.184 1.054.408 1.054.29 0 1.555-2.017 3.678-2.017 1.291 0 2.517.765 2.517 2.86 0 1.451-1.054 2.927-2.36 2.927-.87 0-.909-.54-1.106-1.45-.172-.83-.515-1.291-.976-1.291Zm11.205-.99c-1.147 0-2.189.99-2.189 3.613 0 1.226.198 2.794.752 3.994.593 1.24 1.529 1.832 2.465 1.832 1.213 0 2.346-.883 2.346-3.203 0-1.345-.355-3.005-.896-4.179-.672-1.37-1.582-2.056-2.478-2.056Zm-6.262 5.01c0-4.179 2.781-7.066 6.618-7.066 3.651 0 6.92 2.624 6.92 7.304 0 4.416-3.058 6.604-6.762 6.604-4.126 0-6.776-2.874-6.776-6.842ZM106.83 17.504c0-1.226-.843-2.149-1.99-2.149-1.569 0-2.65 1.595-2.65 3.23 0 .488.158.778.514.778.831 0 2.966-.356 3.784-1.081a.999.999 0 0 0 .342-.778Zm2.465 2.373c-1.516.857-4.653 1.186-6.274 1.279-.251.013-.343.066-.343.25 0 .976.949 2.782 3.375 2.782 1.871 0 2.992-.91 3.664-1.78.172-.172.369-.29.528-.29.237 0 .395.237.395.751 0 1.727-2.03 4.403-5.774 4.403-4.06 0-6.552-2.755-6.552-6.657 0-3.915 2.756-7.277 6.908-7.277 3.612 0 5.194 2.663 5.194 4.772 0 .897-.448 1.41-1.121 1.767Zm9.417 4.614c1.331 0 2.359-1.029 2.359-4.337 0-3.546-1.292-4.64-2.491-4.64-1.384 0-2.544 1.239-2.544 4.402 0 3.032 1.041 4.575 2.676 4.575Zm5.049 2.715c-1.187 0-1.885-.369-2.439-1.344-.145-.198-.224-.409-.382-.409-.119 0-.29.211-.594.488-.58.54-1.621 1.305-3.335 1.305-2.65 0-5.075-2.11-5.075-6.539 0-4.798 2.491-7.369 5.51-7.369 2.333 0 3.151 1.424 3.362 1.424.132 0 .211-.184.211-1.068v-1.898c0-.712-.475-1.12-.87-1.305-.277-.158-.567-.33-.567-.686 0-.632.817-.751 1.845-1.173 1.279-.514 2.083-1.028 2.663-1.028.514 0 .844.264.844.87 0 1.397-.119 1.556-.119 4.996v9.795c0 .514.224 1.094.804 1.094.277 0 .422-.092.607-.092.145 0 .277.197.277.5 0 1.385-1.226 2.44-2.742 2.44Z" fill="#13C296"/><path d="M132.653 24.847c0 1.437-1.121 2.293-2.373 2.293-1.107 0-2.109-.672-2.109-2.043 0-1.476 1.186-2.36 2.359-2.36 1.081 0 2.123.726 2.123 2.11Zm1.514-4.258c0-3.863 2.557-7.25 6.855-7.25 2.636 0 4.667 1.383 4.667 3.374 0 1.345-.95 2.254-2.373 2.254-.633 0-.818-.303-.989-1.067-.277-1.2-.751-2.597-2.043-2.597-1.411 0-2.373 1.515-2.373 3.585 0 2.729 1.503 4.904 4.152 4.904 2.03 0 2.953-1.226 3.467-1.859.145-.145.304-.303.462-.303.356 0 .435.409.435.857 0 2.122-2.123 4.785-5.748 4.785-3.941 0-6.512-2.86-6.512-6.683Zm19.521-5.194c-1.146 0-2.188.989-2.188 3.612 0 1.226.198 2.794.752 3.994.593 1.24 1.529 1.832 2.465 1.832 1.213 0 2.346-.883 2.346-3.203 0-1.345-.356-3.005-.896-4.179-.673-1.37-1.582-2.056-2.479-2.056Zm-6.261 5.01c0-4.18 2.781-7.067 6.617-7.067 3.652 0 6.921 2.624 6.921 7.304 0 4.416-3.058 6.604-6.762 6.604-4.127 0-6.776-2.874-6.776-6.842Zm27.765-4.958c.316 0 1.792-2.109 4.363-2.109 2.834 0 4.073 1.846 4.073 5.01 0 2.175-.329 4.455-.329 5.378 0 .593.198 1.2.606 1.53.462.382.87.46.87 1.028 0 .461-.329.764-1.094.764-.672 0-1.305-.066-1.99-.066-.884 0-1.16.066-1.991.066-.554 0-.751-.33-.751-.725 0-.514.197-1.002.303-1.292.25-.751.527-3.177.527-5.523 0-2.413-.804-3.52-2.162-3.52-.883 0-2.201.83-2.201 2.637 0 2.175-.093 4.178-.093 5.101 0 .593.093 1.187.475 1.53.435.382.791.46.791 1.028 0 .461-.316.764-1.081.764-.685 0-1.16-.066-1.832-.066-.884 0-1.16.066-1.991.066-.554 0-.751-.33-.751-.725 0-.514.197-1.002.303-1.292.25-.751.474-3.177.474-5.523 0-2.413-.777-3.52-2.135-3.52-.949 0-2.228 1.041-2.228 2.465v4.904c0 1.041.106 1.437.475 1.846.356.395.777.487.777 1.08 0 .449-.25.765-1.001.765-.726 0-1.371-.066-2.044-.066-.843 0-1.621.066-2.544.066-.62 0-.83-.33-.83-.725 0-.567.474-.857.711-1.107.62-.686.712-1.371.712-2.044v-5.694c0-.765-.435-1.068-.804-1.24-.237-.131-.54-.303-.54-.711 0-.673.843-.791 1.858-1.226 1.292-.594 1.595-.884 2.044-.884.487 0 .777.211.936.884.118.514.184 1.054.382 1.054.29 0 1.766-2.017 4.034-2.017 1.344 0 2.386.501 3.084 1.477.304.382.422.633.594.633Z" fill="#111928"/><g clip-path="url(#bea)"><path fill-rule="evenodd" clip-rule="evenodd" d="M108.898 0 87.835 26.722l-4.959 1.71L76.18 13.79l3.17-.705 5.674 9.16L103.99 1.056 108.898 0Z" fill="#111928"/></g><path d="M128.883 39.953v-9.239h3.465c.709 0 1.305.124 1.786.37.484.247.85.593 1.096 1.038.25.442.375.958.375 1.547 0 .593-.127 1.107-.379 1.543-.25.433-.618.768-1.105 1.006-.488.235-1.086.352-1.796.352h-2.467v-1.39h2.242c.415 0 .754-.057 1.019-.171a1.21 1.21 0 0 0 .586-.51c.13-.225.194-.502.194-.83 0-.328-.064-.607-.194-.839a1.233 1.233 0 0 0-.59-.532c-.265-.123-.606-.185-1.024-.185h-1.534v7.84h-1.674Zm4.773-4.186 2.287 4.186h-1.868l-2.246-4.186h1.827Zm3.489 4.186v-9.239h6.009v1.403h-4.335v2.509h4.024v1.403h-4.024v2.521h4.371v1.403h-6.045Zm8.952-9.239 2.405 7.272h.095l2.399-7.271h1.841l-3.257 9.238h-2.066l-3.253-9.239h1.836Zm9.63 0v9.24h-1.673v-9.24h1.673Zm1.813 9.24v-9.24h6.008v1.403h-4.335v2.509h4.024v1.403h-4.024v2.521h4.372v1.403h-6.045Zm9.66 0-2.607-9.24h1.8l1.664 6.79h.086l1.777-6.79h1.638l1.782 6.794h.081l1.665-6.794h1.799l-2.607 9.24h-1.651l-1.85-6.483h-.072l-1.854 6.482H167.2Zm15.805-6.7c-.042-.394-.22-.7-.533-.92-.309-.22-.712-.33-1.209-.33-.348 0-.648.053-.897.159-.25.105-.441.248-.573.428-.132.18-.2.386-.203.618 0 .193.043.36.131.5.09.142.212.262.365.362.153.096.323.177.51.243a5.4 5.4 0 0 0 .564.167l.866.217c.349.081.684.19 1.006.33.325.137.615.312.87.522.259.21.464.465.614.763.15.297.225.646.225 1.046 0 .542-.138 1.018-.415 1.43-.276.41-.676.73-1.199.961-.521.229-1.151.343-1.891.343-.718 0-1.342-.111-1.872-.334-.526-.222-.938-.547-1.236-.974-.294-.427-.454-.947-.478-1.561h1.647c.024.322.123.59.297.803.175.213.402.373.682.478.282.105.598.158.947.158.364 0 .683-.054.956-.162.277-.112.493-.265.65-.46.156-.199.236-.43.239-.695a.885.885 0 0 0-.212-.596 1.548 1.548 0 0 0-.582-.397 5.62 5.62 0 0 0-.866-.288l-1.051-.271c-.761-.195-1.363-.492-1.805-.889-.439-.4-.658-.93-.658-1.592 0-.544.147-1.021.442-1.43.298-.41.702-.726 1.213-.952.512-.229 1.09-.343 1.737-.343.656 0 1.23.114 1.723.343.496.226.886.54 1.169.943.282.4.428.86.437 1.38h-1.61Z" fill="#111928"/><defs><clipPath id="bea"><path fill="#fff" transform="translate(76.168)" d="M0 0h32.741v28.433H0z"/></clipPath></defs></svg>