<svg width="48" height="48" viewBox="0 0 48 48" fill="none" xmlns="http://www.w3.org/2000/svg">
<path d="M40.4939 28.104C39.4044 32.479 36.6215 36.242 32.7575 38.5652C28.8935 40.8884 24.2649 41.5815 19.8899 40.4921C10.7879 38.2201 5.23993 29 7.50793 19.9C9.77593 10.8 18.9879 5.24005 28.0839 7.51005C37.2079 9.75005 42.7579 18.9981 40.4939 28.1061V28.104Z" stroke="black" stroke-width="2"/>
<path d="M18.8 29.824L22.186 16.24M19.274 15.514L27.636 17.6C33.092 18.96 31.876 25.354 26.064 23.906C32.432 25.494 31.784 33.062 24.25 31.184C20.568 30.264 16.624 29.284 16.624 29.284M20.612 22.548L25.95 23.878M23.156 16.482L23.882 13.572M19.042 32.978L19.768 30.066M27.036 17.45L27.762 14.54M22.924 33.946L23.65 31.034" stroke="black" stroke-width="2" stroke-linecap="square" stroke-linejoin="round"/>
</svg>
