<svg width="48" height="48" viewBox="0 0 48 48" fill="none" xmlns="http://www.w3.org/2000/svg">
<g clip-path="url(#clip0_2008_2084)">
<path d="M5.94141 11.5913C7.18069 9.75881 8.73047 8.15775 10.5059 6.84675L11.6075 9.18609L17.8931 2.60306L8.31009 2.17969L9.48047 4.66556C7.32572 6.18459 5.46094 8.08303 3.98438 10.2685C1.64653 13.7256 0.28125 17.9004 0.28125 22.3857H2.64553C2.64553 18.3823 3.86137 14.6748 5.94141 11.5913Z" fill="#111928"/>
<path d="M45.3546 26.7964C45.3531 30.6797 44.2105 34.2847 42.2432 37.3125C40.9703 39.2666 39.3487 40.9717 37.4737 42.3516L36.5888 40.4737L30.3047 47.0567L39.8877 47.4801L38.4947 44.521C40.7593 42.9288 42.7119 40.9249 44.2237 38.6016C46.4327 35.206 47.7188 31.1455 47.7188 26.7964H45.3546Z" fill="#111928"/>
<path d="M16.875 15.3823C17.6777 15.3896 18.4687 15.4511 19.2436 15.5625C19.2392 15.419 19.2334 15.2753 19.2334 15.1289C19.2334 8.09034 24.9595 2.36428 31.998 2.36428C39.0366 2.36428 44.7627 8.09034 44.7627 15.1289C44.7627 21.6739 39.8115 27.0791 33.4599 27.8071C33.687 28.56 33.8656 29.332 33.9916 30.123C41.4038 29.1459 47.1269 22.8076 47.1269 15.1288C47.127 6.77344 40.3535 0 31.998 0C23.6426 0 16.8691 6.77344 16.8691 15.1289C16.8691 15.2138 16.875 15.2974 16.875 15.3823Z" fill="#111928"/>
<path d="M21.1026 34.8574C21.1026 33.7339 20.4669 32.9648 19.1016 32.7275C19.5498 32.5547 20.0493 32.0508 20.1988 31.8721C20.3467 31.6934 20.4581 31.5 20.5284 31.2949C20.6002 31.0898 20.6368 30.876 20.6368 30.6519C20.6368 30.2593 20.565 29.9063 20.4229 29.5928C20.2808 29.2808 20.0479 29.0244 19.749 28.793C19.2173 28.38 18.4439 28.1837 17.8155 28.1309V26.7861H16.6553V28.1104L15.6035 28.1074V26.7861H14.4434V28.1045H13.5205H12.3296V29.1607C12.3296 29.3893 12.3135 29.5269 12.5507 29.5738L12.6387 29.5899C12.6782 29.5958 13.1426 29.6104 13.2451 29.6251C13.4063 29.647 13.5206 29.732 13.5206 29.9474V35.6719C13.5206 35.8505 13.4326 36.0263 13.2451 36.0263C13.1426 36.0263 12.6782 36.0557 12.6387 36.0615L12.5507 36.0761C12.3135 36.1245 12.3296 36.2621 12.3296 36.4907V37.6684H13.5205H14.4434V38.956H15.6035V37.6684H16.6553V38.956H17.8155V37.6581C18.2461 37.6347 18.7061 37.5688 19.0738 37.456C19.5381 37.3154 19.8105 37.1191 20.127 36.8716C20.4463 36.6226 20.6865 36.3252 20.8535 35.9824C21.0206 35.6382 21.1026 35.2632 21.1026 34.8574ZM15.668 29.7993H16.6084C17.105 29.7993 17.4698 29.8813 17.7042 30.0439C17.937 30.2064 18.0528 30.4789 18.0528 30.8642C18.0528 31.2334 17.9239 31.5029 17.6661 31.6728C17.4054 31.8412 17.0274 31.9277 16.5265 31.9277H15.6681V29.7993H15.668ZM18.2989 35.2646C18.2491 35.3994 18.17 35.518 18.0586 35.6191C17.9473 35.7216 17.7993 35.8037 17.6148 35.8652C17.4317 35.9253 17.2018 35.956 16.9278 35.956H15.7091V33.7998H16.9219C17.1812 33.7998 17.4024 33.8217 17.5841 33.8701C17.7672 33.9169 17.9181 33.9873 18.0338 34.0752C18.151 34.166 18.2359 34.2744 18.2916 34.4004C18.3458 34.5293 18.3736 34.6714 18.3736 34.8311C18.3735 34.9834 18.3487 35.1284 18.2989 35.2646Z" fill="#111928"/>
<path d="M16.7168 17.7422C8.36133 17.7422 1.58789 24.5156 1.58789 32.8711C1.58789 41.2266 8.36133 48 16.7168 48C25.0723 48 31.8457 41.2266 31.8457 32.8711C31.8457 24.5156 25.0723 17.7422 16.7168 17.7422ZM16.7168 45.6357C9.67673 45.6357 3.95067 39.9097 3.95067 32.8711C3.95067 25.8325 9.67673 20.1065 16.7168 20.1065C23.754 20.1065 29.4814 25.8325 29.4814 32.8711C29.4814 39.9097 23.7539 45.6357 16.7168 45.6357Z" fill="#111928"/>
<path d="M33.7645 18.2373C33.3455 18.4629 32.8182 18.5742 32.1796 18.5742C31.6742 18.5742 31.1659 18.5054 30.6561 18.3662C30.1434 18.2256 29.4681 17.6396 29.4681 17.6396C29.3524 17.5693 29.2015 17.5869 29.1034 17.6836L28.2025 18.5859C28.1366 18.6489 28.1073 18.7398 28.119 18.8305C28.1292 18.9214 28.182 19.0019 28.2611 19.0488C28.2611 19.0488 29.1825 19.8266 29.8871 20.0199C30.3485 20.1474 30.8378 20.2265 31.3504 20.2704V21.747H33.1507V20.2397C33.391 20.2074 33.6283 20.1679 33.8554 20.1108C34.3725 19.9775 34.8192 19.7754 35.1913 19.5014C35.5605 19.229 35.8534 18.8949 36.0673 18.4951C36.2797 18.0967 36.3866 17.6323 36.3866 17.0977C36.3866 16.2099 36.1171 15.5318 35.578 15.0659C35.0404 14.6016 34.2465 14.3217 33.1962 14.2295L31.7811 14.1079C31.2757 14.0566 30.9169 13.9365 30.7059 13.7504C30.4921 13.5644 30.3866 13.2992 30.3866 12.9535C30.3866 12.5668 30.536 12.2562 30.8348 12.016C31.1337 11.7773 31.595 11.6572 32.2205 11.6572C32.6981 11.6572 33.1522 11.7158 33.5858 11.8271C34.0179 11.9399 34.5189 12.2974 34.5189 12.2974C34.6332 12.356 34.7723 12.331 34.8632 12.2403L35.7084 11.3819C35.7743 11.3145 35.8051 11.2237 35.7904 11.1285C35.7772 11.0363 35.7186 10.9571 35.6366 10.9132C35.6366 10.9132 34.9744 10.3946 34.3416 10.2233C33.9695 10.1193 33.5711 10.0533 33.1507 10.0108V8.73779H31.3504V10.0371C31.1468 10.0707 30.9461 10.1074 30.7557 10.1631C30.2958 10.2949 29.8943 10.4956 29.5487 10.7607C29.2029 11.0244 28.9305 11.3511 28.7313 11.7363C28.532 12.123 28.4324 12.561 28.4324 13.0532C28.4324 13.9423 28.6902 14.6074 29.2102 15.0469C29.7274 15.4834 30.4656 15.75 31.4207 15.8438L33.0379 15.9815C33.5271 16.0372 33.8772 16.1617 34.0837 16.3624C34.2903 16.5616 34.3913 16.834 34.3913 17.1798C34.3915 17.6587 34.1835 18.0102 33.7645 18.2373Z" fill="#111928"/>
</g>
<defs>
<clipPath id="clip0_2008_2084">
<rect width="48" height="48" fill="white"/>
</clipPath>
</defs>
</svg>
