<svg width="48" height="48" viewBox="0 0 48 48" fill="none" xmlns="http://www.w3.org/2000/svg">
<path d="M23.9731 47.6825C23.7913 47.6825 23.6096 47.6356 23.4462 47.5413L3.82595 36.2135C3.49981 36.0254 3.29907 35.6772 3.29907 35.301V12.6453C3.29907 12.2692 3.49981 11.9209 3.82595 11.7328L23.4462 0.404987C23.7724 0.216892 24.1739 0.216892 24.5 0.404987L44.1203 11.7328C44.4464 11.9209 44.6472 12.2692 44.6472 12.6453V35.301C44.6472 35.6777 44.4464 36.0254 44.1203 36.2135L24.5 47.5413C24.3367 47.6356 24.1549 47.6825 23.9731 47.6825ZM5.40657 34.693L23.9731 45.4117L42.5397 34.6924V13.2539L23.9731 2.53462L5.40657 13.2539V34.693Z" fill="#111928"/>
<path d="M14.9007 36.2688C14.4334 36.2688 14.0135 35.9574 13.886 35.4959L10.8275 24.4379V32.4537C10.8275 33.0354 10.3554 33.5075 9.77372 33.5075C9.19205 33.5075 8.71997 33.0354 8.71997 32.4537V16.6759C8.71997 16.1491 9.10933 15.7028 9.63199 15.6317C10.1547 15.5611 10.6489 15.8867 10.7895 16.3951L13.848 27.4532V13.4414C13.848 12.8598 14.3201 12.3877 14.9018 12.3877C15.4835 12.3877 15.9555 12.8598 15.9555 13.4414V35.2151C15.9555 35.7425 15.5662 36.1887 15.0435 36.2588C14.9956 36.2657 14.9482 36.2688 14.9007 36.2688Z" fill="#111928"/>
<path d="M39.225 16.9604C39.039 16.9604 38.8514 16.9114 38.6812 16.8081L31.991 12.7654C31.4931 12.4646 31.3329 11.8165 31.6338 11.3186C31.9346 10.8197 32.5837 10.6611 33.0806 10.9614L39.7708 15.0041C40.2687 15.305 40.4289 15.953 40.128 16.4509C39.9299 16.7792 39.5817 16.9604 39.225 16.9604Z" fill="#111928"/>
<path d="M19.3687 39.4321C18.787 39.4321 18.3149 38.9601 18.3149 38.3784V9.5931C18.3149 9.22218 18.5099 8.87866 18.8281 8.68846L23.5595 5.86125C23.894 5.66156 24.3113 5.66314 24.6448 5.86388L30.3677 9.32229C30.8656 9.62314 31.0258 10.2712 30.725 10.7696C30.4236 11.2675 29.7755 11.4266 29.2782 11.1263L24.0969 7.99509L20.4224 10.1906V38.3784C20.4224 38.9601 19.9509 39.4321 19.3687 39.4321Z" fill="#111928"/>
<path d="M28.6417 24.9373H19.3687C18.787 24.9373 18.3149 24.4653 18.3149 23.8836C18.3149 23.3019 18.787 22.8298 19.3687 22.8298H28.6417C29.2234 22.8298 29.6954 23.3019 29.6954 23.8836C29.6954 24.4653 29.2239 24.9373 28.6417 24.9373Z" fill="#111928"/>
<path d="M35.7393 36.0054C35.1576 36.0054 34.6855 35.5334 34.6855 34.9517V13.7992C34.6855 13.2176 35.1576 12.7455 35.7393 12.7455C36.321 12.7455 36.793 13.2176 36.793 13.7992V34.9512C36.793 35.5334 36.3215 36.0054 35.7393 36.0054Z" fill="#111928"/>
</svg>
