<svg width="48" height="48" viewBox="0 0 48 48" fill="none" xmlns="http://www.w3.org/2000/svg">
<path d="M41.4825 26.43V20.94C41.4806 19.9759 41.0966 19.0518 40.415 18.3701C39.7332 17.6883 38.8091 17.3045 37.845 17.3025H35.79L38.295 14.805C38.432 14.6613 38.5097 14.4711 38.5125 14.2725C38.5131 14.1738 38.4941 14.076 38.4569 13.9846C38.4195 13.8932 38.3645 13.8101 38.295 13.74L28.5975 4.04251C28.5278 3.97221 28.4448 3.91642 28.3535 3.87834C28.262 3.84026 28.164 3.82066 28.065 3.82066C27.966 3.82066 27.868 3.84026 27.7766 3.87834C27.6852 3.91642 27.6023 3.97221 27.5325 4.04251L25.725 5.85001L18.6675 2.32501C18.4862 2.24182 18.2806 2.22847 18.09 2.28751C17.9033 2.35394 17.7482 2.48767 17.655 2.66251L10.3575 17.3025H5.8575C4.8986 17.3124 3.98221 17.6997 3.30694 18.3806C2.63167 19.0615 2.25192 19.9811 2.25 20.94V42.1125C2.25198 43.0767 2.63585 44.0007 3.31759 44.6824C3.99932 45.3642 4.92338 45.748 5.8875 45.75H37.845C38.8091 45.748 39.7332 45.3642 40.415 44.6824C41.0966 44.0007 41.4806 43.0767 41.4825 42.1125V35.3625C42.2029 35.3373 42.8855 35.0343 43.3874 34.5171C43.8893 33.9998 44.1716 33.3083 44.175 32.5875V29.2125C44.1754 28.4899 43.8946 27.7954 43.3921 27.2761C42.8896 26.7568 42.2048 26.4534 41.4825 26.43ZM28.065 5.63251L36.705 14.25L33.705 17.25H30.945L31.695 16.545C31.7653 16.4753 31.8211 16.3923 31.8592 16.3009C31.8973 16.2096 31.9169 16.1115 31.9169 16.0125C31.9169 15.9135 31.8973 15.8155 31.8592 15.7241C31.8211 15.6327 31.7653 15.5497 31.695 15.48C31.529 15.3148 31.3973 15.1185 31.3074 14.9022C31.2176 14.686 31.1713 14.4542 31.1713 14.22C31.1713 13.9858 31.2176 13.754 31.3074 13.5378C31.3973 13.3215 31.529 13.1252 31.695 12.96C31.7653 12.8903 31.8211 12.8073 31.8592 12.7159C31.8973 12.6246 31.9169 12.5265 31.9169 12.4275C31.9169 12.3285 31.8973 12.2305 31.8592 12.1391C31.8211 12.0477 31.7653 11.9647 31.695 11.895L30.375 10.68C30.2345 10.5403 30.0444 10.4619 29.8463 10.4619C29.6481 10.4619 29.4581 10.5403 29.3175 10.68C29.153 10.8458 28.9573 10.9773 28.7417 11.0671C28.526 11.1569 28.2948 11.2031 28.0613 11.2031C27.8277 11.2031 27.5965 11.1569 27.3809 11.0671C27.1652 10.9773 26.9696 10.8458 26.805 10.68C26.7353 10.6097 26.6523 10.5539 26.561 10.5159C26.4695 10.4778 26.3715 10.4582 26.2725 10.4582C26.1735 10.4582 26.0755 10.4778 25.9841 10.5159C25.8927 10.5539 25.8098 10.6097 25.74 10.68L19.125 17.3025H16.395L28.065 5.63251ZM21.3225 17.25C21.8231 16.7589 22.4963 16.4839 23.1975 16.4839C23.8987 16.4839 24.572 16.7589 25.0725 17.25L25.1325 17.325H21.24L21.3225 17.25ZM26.97 17.325C26.7716 16.9008 26.5 16.5149 26.1675 16.185C25.4668 15.4956 24.545 15.0759 23.565 15L26.3325 12.2325C26.8524 12.5523 27.4508 12.7215 28.0613 12.7215C28.6717 12.7215 29.2701 12.5523 29.79 12.2325L30.1275 12.5625C29.8108 13.0689 29.6396 13.6527 29.6325 14.25C29.6328 14.8611 29.8071 15.4594 30.135 15.975L28.83 17.28L26.97 17.325ZM17.4675 14.1075L19.1175 10.7925C19.6876 10.9263 20.2831 10.9056 20.8425 10.7325L17.4675 14.1075ZM18.6675 4.00501L24.6075 6.96751L23.1675 8.40753L22.5 8.06253C22.4115 8.01753 22.3149 7.99061 22.2159 7.98326C22.1169 7.97591 22.0175 7.98828 21.9233 8.01971C21.8291 8.05113 21.7421 8.10086 21.6672 8.16618C21.5924 8.23143 21.5314 8.31093 21.4875 8.40003C21.3839 8.60853 21.2401 8.79461 21.0644 8.94753C20.8887 9.10038 20.6846 9.21708 20.4638 9.29096C20.2429 9.36483 20.0096 9.39431 19.7774 9.37788C19.545 9.36138 19.3183 9.29928 19.11 9.19503C18.9329 9.10608 18.7277 9.09086 18.5394 9.15266C18.3511 9.21453 18.1949 9.34833 18.105 9.52503L14.205 17.3025H12.0375L18.6675 4.00501ZM37.845 44.25H5.8875C5.32121 44.248 4.77868 44.0222 4.37825 43.6218C3.97781 43.2213 3.75198 42.6788 3.75 42.1125V20.94C3.75198 20.3737 3.97781 19.8312 4.37825 19.4307C4.77868 19.0303 5.32121 18.8045 5.8875 18.8025H37.845C38.4113 18.8045 38.9538 19.0303 39.3542 19.4307C39.7547 19.8312 39.9806 20.3737 39.9825 20.94V26.4225H34.3875C33.7907 26.4225 33.2185 26.6595 32.7965 27.0816C32.3746 27.5035 32.1375 28.0758 32.1375 28.6725V33.105C32.1375 33.7017 32.3746 34.2741 32.7965 34.696C33.2185 35.118 33.7907 35.355 34.3875 35.355H39.9825V42.105C39.9825 42.6726 39.7576 43.2171 39.3569 43.6191C38.9563 44.0211 38.4126 44.248 37.845 44.25ZM33.6375 30.0525H34.32C34.5281 30.0723 34.7214 30.1689 34.8621 30.3235C35.0027 30.4782 35.0807 30.6797 35.0807 30.8888C35.0807 31.0978 35.0027 31.2993 34.8621 31.454C34.7214 31.6086 34.5281 31.7053 34.32 31.725H33.6375V30.0525ZM42.6375 32.5725C42.6356 32.9121 42.4998 33.2371 42.2597 33.4772C42.0196 33.7173 41.6945 33.853 41.355 33.855H34.3875C34.2077 33.8574 34.0331 33.795 33.8954 33.6794C33.7578 33.5637 33.6662 33.4025 33.6375 33.225H34.2975C34.8942 33.1912 35.4554 32.9303 35.8659 32.4959C36.2764 32.0615 36.5051 31.4865 36.5051 30.8888C36.5051 30.2911 36.2764 29.7161 35.8659 29.2816C35.4554 28.8472 34.8942 28.5864 34.2975 28.5525H33.6375C33.6662 28.375 33.7578 28.2138 33.8954 28.0982C34.0331 27.9825 34.2077 27.9202 34.3875 27.9225H41.3925C41.7314 27.9225 42.0564 28.0566 42.2967 28.2955C42.537 28.5344 42.6731 28.8587 42.675 29.1975L42.6375 32.5725Z" fill="#111928"/>
</svg>
