<svg width="186" height="41" viewBox="0 0 186 41" fill="none" xmlns="http://www.w3.org/2000/svg">
<path d="M7.1167 19.6791H10.5969C10.8605 19.6791 10.9133 19.5869 10.9133 19.4418C10.9133 19.0464 9.79275 15.7639 9.15999 14.5379C9.09408 14.3929 8.97544 14.2347 8.89634 14.2347C8.79088 14.2347 8.71179 14.3929 8.63269 14.5379C8.05266 15.698 6.8135 19.1123 6.8135 19.4418C6.8135 19.5869 6.87941 19.6791 7.1167 19.6791ZM2.80601 23.4625L6.8135 13.022C7.15625 12.086 7.38035 11.15 7.49899 10.4514C7.68355 9.54176 9.70048 8.64535 10.5573 8.64535C11.256 8.64535 11.4933 9.1331 11.7438 9.80541L17.0563 23.4889C17.2145 23.8975 17.5309 24.583 18.2164 25.1763C18.48 25.4135 18.9019 25.7431 18.9019 26.1649C18.9019 26.8768 18.3878 27.0482 17.3463 27.0482C16.6345 27.0482 15.9885 26.9823 14.7494 26.9823C13.5102 26.9823 12.8247 27.0482 12.047 27.0482C11.2692 27.0482 10.9001 26.745 10.9001 26.2309C10.9001 25.4795 12.4556 25.2026 12.4556 24.003C12.4556 23.7921 12.1261 22.8034 11.8624 22.3288C11.7701 22.1575 11.5592 22.0256 11.2956 22.0256H6.72122C6.37848 22.0256 6.12801 22.1575 5.96982 22.3288C5.70617 22.7243 5.27114 23.7657 5.27114 24.2139C5.27114 25.374 6.64213 25.5454 6.64213 26.2968C6.64213 26.7186 6.39166 27.0482 5.53479 27.0482C4.96794 27.0482 4.00562 26.9823 3.39922 26.9823C2.77964 26.9823 2.38417 27.0482 1.80413 27.0482C1.23729 27.0482 0.934087 26.7845 0.934087 26.31C0.934087 25.4795 2.00187 25.5454 2.80601 23.4625ZM26.6273 15.9485C25.3486 15.9485 24.0962 17.2931 24.0962 20.246C24.0962 24.2271 25.2036 25.0049 26.4823 25.0049C27.8137 25.0049 29.1319 23.7394 29.1319 20.4437C29.1319 17.214 28.0378 15.9485 26.6273 15.9485ZM33.2317 19.8769C33.2317 24.3721 30.5293 27.2459 27.1414 27.2459C25.309 27.2459 24.6763 26.3495 24.3994 26.3495C24.228 26.3495 24.1621 26.5341 24.1621 27.0745V28.7355C24.1621 29.8561 24.6763 30.1593 25.1904 30.5415C25.6254 30.8447 26.1791 31.0425 26.1791 31.6357C26.1791 32.0971 25.9286 32.4003 25.164 32.4003C24.4917 32.4003 23.1471 32.3344 22.4089 32.3344C21.5124 32.3344 20.6819 32.4003 19.7328 32.4003C19.0869 32.4003 18.8759 32.0707 18.8759 31.6884C18.8759 31.1084 19.3637 30.8184 19.6142 30.5679C20.2601 29.8824 20.3524 29.2101 20.3524 28.5246V17.4777C20.3524 16.6999 19.8646 16.3967 19.4691 16.2253C19.1923 16.0539 18.955 15.8826 18.955 15.5266C18.955 14.8543 19.7723 14.7357 20.7874 14.3007C22.0793 13.7074 22.4352 13.4174 22.9098 13.4174C23.3975 13.4174 23.6744 13.6284 23.8589 14.3007C23.9644 14.8148 24.0435 15.3553 24.2544 15.3553C24.5576 15.3553 25.6386 13.3383 28.2355 13.3383C31.4521 13.3383 33.2317 16.0671 33.2317 19.8769ZM41.9468 15.9485C40.6681 15.9485 39.4158 17.2931 39.4158 20.246C39.4158 24.2271 40.5231 25.0049 41.8018 25.0049C43.1332 25.0049 44.4515 23.7394 44.4515 20.4437C44.4515 17.214 43.3574 15.9485 41.9468 15.9485ZM48.5513 19.8769C48.5513 24.3721 45.8488 27.2459 42.4609 27.2459C40.6286 27.2459 39.9958 26.3495 39.719 26.3495C39.5476 26.3495 39.4817 26.5341 39.4817 27.0745V28.7355C39.4817 29.8561 39.9958 30.1593 40.5099 30.5415C40.9449 30.8447 41.4986 31.0425 41.4986 31.6357C41.4986 32.0971 41.2481 32.4003 40.4836 32.4003C39.8112 32.4003 38.4666 32.3344 37.7284 32.3344C36.832 32.3344 36.0015 32.4003 35.0524 32.4003C34.4064 32.4003 34.1955 32.0707 34.1955 31.6884C34.1955 31.1084 34.6832 30.8184 34.9337 30.5679C35.5797 29.8824 35.6719 29.2101 35.6719 28.5246V17.4777C35.6719 16.6999 35.1842 16.3967 34.7887 16.2253C34.5119 16.0539 34.2746 15.8826 34.2746 15.5266C34.2746 14.8543 35.0919 14.7357 36.107 14.3007C37.3988 13.7074 37.7548 13.4174 38.2293 13.4174C38.7171 13.4174 38.9939 13.6284 39.1785 14.3007C39.2839 14.8148 39.363 15.3553 39.574 15.3553C39.8772 15.3553 40.9581 13.3383 43.5551 13.3383C46.7716 13.3383 48.5513 16.0671 48.5513 19.8769ZM56.95 16.3835C55.8954 16.3835 55.0912 17.7677 55.0912 19.0464V23.1857C55.0912 24.2271 55.3022 24.6621 56.0404 25.2158C56.4754 25.5454 57.2268 25.6772 57.2268 26.2836C57.2268 26.7318 56.9895 27.0482 56.2118 27.0482C55.4472 27.0482 54.5508 26.9823 53.2457 26.9823C52.3493 26.9823 51.7956 27.0482 50.6751 27.0482C50.0292 27.0482 49.8182 26.7186 49.8182 26.3231C49.8182 25.7563 50.306 25.4663 50.5565 25.2158C51.2024 24.5303 51.2815 23.8448 51.2815 23.1725V17.4777C51.2815 16.7131 50.8069 16.3967 50.4114 16.2253C50.1346 16.0539 49.8973 15.8826 49.8973 15.5266C49.8973 14.8543 50.7146 14.7357 51.7165 14.3007C53.0216 13.7074 53.3775 13.4174 53.8389 13.4174C54.3267 13.4174 54.6035 13.6284 54.7881 14.3007C54.8935 14.8148 54.9726 15.3553 55.1967 15.3553C55.4867 15.3553 56.7522 13.3383 58.8746 13.3383C60.1665 13.3383 61.3925 14.1029 61.3925 16.1989C61.3925 17.649 60.3379 19.1255 59.0328 19.1255C58.1628 19.1255 58.1232 18.585 57.9255 17.6754C57.7541 16.8449 57.4114 16.3835 56.95 16.3835ZM68.1547 15.3948C67.0079 15.3948 65.9664 16.3835 65.9664 19.0068C65.9664 20.2328 66.1642 21.8015 66.7178 23.0011C67.3111 24.2403 68.247 24.8335 69.183 24.8335C70.3958 24.8335 71.5295 23.9503 71.5295 21.6302C71.5295 20.2855 71.1735 18.6245 70.633 17.4513C69.9607 16.0803 69.0511 15.3948 68.1547 15.3948ZM61.893 20.4042C61.893 16.2253 64.6745 13.3383 68.5107 13.3383C72.1622 13.3383 75.4315 15.9617 75.4315 20.6415C75.4315 25.0576 72.3731 27.2459 68.6689 27.2459C64.5427 27.2459 61.893 24.3721 61.893 20.4042Z" fill="#13C296"/>
<path d="M106.83 17.504C106.83 16.278 105.987 15.3553 104.84 15.3553C103.271 15.3553 102.19 16.9503 102.19 18.585C102.19 19.0727 102.348 19.3628 102.704 19.3628C103.535 19.3628 105.67 19.0068 106.488 18.2818C106.712 18.0709 106.83 17.8336 106.83 17.504ZM109.295 19.8769C107.779 20.7337 104.642 21.0633 103.021 21.1556C102.77 21.1688 102.678 21.2215 102.678 21.406C102.678 22.3816 103.627 24.1876 106.053 24.1876C107.924 24.1876 109.045 23.278 109.717 22.4079C109.889 22.2365 110.086 22.1179 110.245 22.1179C110.482 22.1179 110.64 22.3552 110.64 22.8693C110.64 24.5962 108.61 27.2723 104.866 27.2723C100.806 27.2723 98.3144 24.5171 98.3144 20.6151C98.3144 16.6999 101.07 13.3383 105.222 13.3383C108.834 13.3383 110.416 16.0012 110.416 18.1104C110.416 19.0068 109.968 19.5209 109.295 19.8769ZM118.712 24.4908C120.043 24.4908 121.071 23.4625 121.071 20.1537C121.071 16.6076 119.779 15.5135 118.58 15.5135C117.196 15.5135 116.036 16.7526 116.036 19.9164C116.036 22.9484 117.077 24.4908 118.712 24.4908ZM123.761 27.2064C122.574 27.2064 121.876 26.8373 121.322 25.8617C121.177 25.664 121.098 25.4531 120.94 25.4531C120.821 25.4531 120.65 25.664 120.346 25.9408C119.766 26.4813 118.725 27.2459 117.011 27.2459C114.361 27.2459 111.936 25.1367 111.936 20.7074C111.936 15.9089 114.427 13.3383 117.446 13.3383C119.779 13.3383 120.597 14.762 120.808 14.762C120.94 14.762 121.019 14.5775 121.019 13.6943V11.796C121.019 11.0841 120.544 10.6755 120.149 10.4909C119.872 10.3327 119.582 10.1613 119.582 9.80541C119.582 9.17265 120.399 9.05401 121.427 8.63217C122.706 8.11805 123.51 7.60393 124.09 7.60393C124.604 7.60393 124.934 7.86758 124.934 8.47398C124.934 9.87133 124.815 10.0295 124.815 13.4702V23.2648C124.815 23.7789 125.039 24.3589 125.619 24.3589C125.896 24.3589 126.041 24.2667 126.226 24.2667C126.371 24.2667 126.503 24.4644 126.503 24.7676C126.503 26.1518 125.277 27.2064 123.761 27.2064Z" fill="#13C296"/>
<path d="M132.653 24.8467C132.653 26.2836 131.532 27.1405 130.28 27.1405C129.173 27.1405 128.171 26.4681 128.171 25.0972C128.171 23.6207 129.357 22.7375 130.53 22.7375C131.611 22.7375 132.653 23.4625 132.653 24.8467ZM134.167 20.5887C134.167 16.7262 136.724 13.3383 141.022 13.3383C143.658 13.3383 145.689 14.7225 145.689 16.7131C145.689 18.0577 144.739 18.9673 143.316 18.9673C142.683 18.9673 142.498 18.6641 142.327 17.8995C142.05 16.6999 141.576 15.3025 140.284 15.3025C138.873 15.3025 137.911 16.8185 137.911 18.8882C137.911 21.617 139.414 23.7921 142.063 23.7921C144.093 23.7921 145.016 22.5661 145.53 21.9333C145.675 21.7883 145.834 21.6302 145.992 21.6302C146.348 21.6302 146.427 22.0388 146.427 22.487C146.427 24.6094 144.304 27.2723 140.679 27.2723C136.738 27.2723 134.167 24.4117 134.167 20.5887ZM153.688 15.3948C152.542 15.3948 151.5 16.3835 151.5 19.0068C151.5 20.2328 151.698 21.8015 152.252 23.0011C152.845 24.2403 153.781 24.8335 154.717 24.8335C155.93 24.8335 157.063 23.9503 157.063 21.6302C157.063 20.2855 156.707 18.6245 156.167 17.4513C155.494 16.0803 154.585 15.3948 153.688 15.3948ZM147.427 20.4042C147.427 16.2253 150.208 13.3383 154.044 13.3383C157.696 13.3383 160.965 15.9617 160.965 20.6415C160.965 25.0576 157.907 27.2459 154.203 27.2459C150.076 27.2459 147.427 24.3721 147.427 20.4042ZM175.192 15.4475C175.508 15.4475 176.984 13.3383 179.555 13.3383C182.389 13.3383 183.628 15.1839 183.628 18.3477C183.628 20.5228 183.299 22.8034 183.299 23.7262C183.299 24.3194 183.497 24.9258 183.905 25.2553C184.367 25.6376 184.775 25.7167 184.775 26.2836C184.775 26.745 184.446 27.0482 183.681 27.0482C183.009 27.0482 182.376 26.9823 181.691 26.9823C180.807 26.9823 180.531 27.0482 179.7 27.0482C179.146 27.0482 178.949 26.7186 178.949 26.3231C178.949 25.809 179.146 25.3213 179.252 25.0312C179.502 24.2798 179.779 21.8543 179.779 19.5078C179.779 17.0954 178.975 15.988 177.617 15.988C176.734 15.988 175.416 16.8185 175.416 18.6245C175.416 20.7997 175.323 22.8034 175.323 23.7262C175.323 24.3194 175.416 24.9126 175.798 25.2553C176.233 25.6376 176.589 25.7167 176.589 26.2836C176.589 26.745 176.273 27.0482 175.508 27.0482C174.823 27.0482 174.348 26.9823 173.676 26.9823C172.792 26.9823 172.516 27.0482 171.685 27.0482C171.131 27.0482 170.934 26.7186 170.934 26.3231C170.934 25.809 171.131 25.3213 171.237 25.0312C171.487 24.2798 171.711 21.8543 171.711 19.5078C171.711 17.0954 170.934 15.988 169.576 15.988C168.627 15.988 167.348 17.0294 167.348 18.4532V23.3571C167.348 24.3985 167.454 24.794 167.823 25.2026C168.179 25.5981 168.6 25.6904 168.6 26.2836C168.6 26.7318 168.35 27.0482 167.599 27.0482C166.873 27.0482 166.228 26.9823 165.555 26.9823C164.712 26.9823 163.934 27.0482 163.011 27.0482C162.391 27.0482 162.181 26.7186 162.181 26.3231C162.181 25.7563 162.655 25.4663 162.892 25.2158C163.512 24.5303 163.604 23.8448 163.604 23.1725V17.4777C163.604 16.7131 163.169 16.4099 162.8 16.2385C162.563 16.1067 162.26 15.9353 162.26 15.5266C162.26 14.8543 163.103 14.7357 164.118 14.3007C165.41 13.7074 165.713 13.4174 166.162 13.4174C166.649 13.4174 166.939 13.6284 167.098 14.3007C167.216 14.8148 167.282 15.3553 167.48 15.3553C167.77 15.3553 169.246 13.3383 171.514 13.3383C172.858 13.3383 173.9 13.8393 174.598 14.8148C174.902 15.1971 175.02 15.4475 175.192 15.4475Z" fill="#111928"/>
<g clip-path="url(#clip0_17_2391)">
<path fill-rule="evenodd" clip-rule="evenodd" d="M108.898 0L87.8351 26.7219L82.8761 28.4329L76.179 13.7887L79.3486 13.0842L85.0233 22.2431L103.99 1.0568L108.898 0Z" fill="#111928"/>
</g>
<path d="M128.883 39.9532V30.7145H132.348C133.057 30.7145 133.653 30.8378 134.134 31.0844C134.618 31.331 134.984 31.6768 135.23 32.1219C135.48 32.564 135.605 33.0798 135.605 33.6692C135.605 34.2617 135.478 34.7759 135.226 35.212C134.976 35.6451 134.608 35.9804 134.121 36.218C133.633 36.4526 133.035 36.5699 132.325 36.5699H129.858V35.1804H132.1C132.515 35.1804 132.854 35.1233 133.119 35.009C133.384 34.8917 133.579 34.7218 133.705 34.4993C133.835 34.2737 133.899 33.997 133.899 33.6692C133.899 33.3414 133.835 33.0617 133.705 32.8302C133.576 32.5956 133.379 32.4182 133.115 32.2979C132.85 32.1746 132.509 32.1129 132.091 32.1129H130.557V39.9532H128.883ZM133.656 35.7669L135.943 39.9532H134.075L131.829 35.7669H133.656ZM137.145 39.9532V30.7145H143.154V32.1174H138.819V34.6256H142.843V36.0285H138.819V38.5502H143.19V39.9532H137.145ZM146.097 30.7145L148.502 37.9863H148.597L150.996 30.7145H152.837L149.58 39.9532H147.514L144.261 30.7145H146.097ZM155.727 30.7145V39.9532H154.054V30.7145H155.727ZM157.54 39.9532V30.7145H163.548V32.1174H159.213V34.6256H163.237V36.0285H159.213V38.5502H163.585V39.9532H157.54ZM167.2 39.9532L164.593 30.7145H166.393L168.057 37.5036H168.143L169.92 30.7145H171.558L173.34 37.5082H173.421L175.086 30.7145H176.885L174.278 39.9532H172.627L170.777 33.4707H170.705L168.851 39.9532H167.2ZM183.005 33.2542C182.963 32.8602 182.785 32.5535 182.472 32.334C182.163 32.1144 181.76 32.0046 181.263 32.0046C180.915 32.0046 180.615 32.0573 180.366 32.1625C180.116 32.2678 179.925 32.4106 179.793 32.5911C179.661 32.7715 179.593 32.9775 179.59 33.2091C179.59 33.4016 179.633 33.5685 179.721 33.7098C179.811 33.8512 179.933 33.9715 180.086 34.0707C180.239 34.167 180.409 34.2482 180.596 34.3143C180.782 34.3805 180.97 34.4361 181.16 34.4812L182.026 34.6978C182.375 34.779 182.71 34.8887 183.032 35.0271C183.357 35.1654 183.647 35.3398 183.902 35.5504C184.161 35.7609 184.366 36.015 184.516 36.3127C184.666 36.6105 184.741 36.9593 184.741 37.3593C184.741 37.9006 184.603 38.3773 184.326 38.7893C184.05 39.1983 183.65 39.5186 183.127 39.7502C182.606 39.9787 181.976 40.093 181.236 40.093C180.518 40.093 179.894 39.9817 179.364 39.7592C178.838 39.5366 178.426 39.2118 178.128 38.7848C177.834 38.3577 177.674 37.8375 177.65 37.224H179.297C179.321 37.5457 179.42 37.8134 179.594 38.0269C179.769 38.2405 179.996 38.3998 180.276 38.5051C180.558 38.6104 180.874 38.663 181.223 38.663C181.587 38.663 181.906 38.6089 182.179 38.5006C182.456 38.3893 182.672 38.2359 182.829 38.0405C182.985 37.842 183.065 37.6104 183.068 37.3458C183.065 37.1052 182.994 36.9067 182.856 36.7503C182.718 36.5909 182.524 36.4586 182.274 36.3533C182.027 36.2451 181.739 36.1488 181.408 36.0646L180.357 35.7939C179.596 35.5985 178.994 35.3022 178.552 34.9053C178.113 34.5053 177.894 33.9745 177.894 33.3129C177.894 32.7685 178.041 32.2919 178.336 31.8829C178.634 31.4738 179.038 31.1566 179.549 30.931C180.061 30.7025 180.639 30.5882 181.286 30.5882C181.942 30.5882 182.516 30.7025 183.009 30.931C183.505 31.1566 183.895 31.4708 184.178 31.8738C184.46 32.2738 184.606 32.7339 184.615 33.2542H183.005Z" fill="#111928"/>
<defs>
<clipPath id="clip0_17_2391">
<rect width="32.7409" height="28.4329" fill="white" transform="translate(76.168)"/>
</clipPath>
</defs>
</svg>
