<svg width="16" height="16" viewBox="0 0 16 16" fill="none" xmlns="http://www.w3.org/2000/svg">
<path fill-rule="evenodd" clip-rule="evenodd" d="M6.76274 1.22877C6.03612 1.22877 5.31661 1.37189 4.6453 1.64998C3.97398 1.92806 3.36401 2.33565 2.85021 2.84948C2.33641 3.36331 1.92884 3.97331 1.65078 4.64466C1.37271 5.31601 1.22959 6.03556 1.22959 6.76223C1.22959 7.48889 1.37271 8.20844 1.65078 8.87979C1.92884 9.55114 2.33641 10.1611 2.85021 10.675C3.36401 11.1888 3.97398 11.5964 4.6453 11.8745C5.31661 12.1526 6.03612 12.2957 6.76274 12.2957C8.23023 12.2957 9.63761 11.7127 10.6753 10.675C11.7129 9.63725 12.2959 8.22979 12.2959 6.76223C12.2959 5.29466 11.7129 3.88721 10.6753 2.84948C9.63761 1.81175 8.23023 1.22877 6.76274 1.22877ZM4.08899e-08 6.76223C0.000143429 5.67611 0.261854 4.606 0.762993 3.64242C1.26413 2.67884 1.98996 1.85014 2.87907 1.22641C3.76819 0.602676 4.79444 0.202268 5.87101 0.0590536C6.94759 -0.084161 8.04282 0.0340304 9.06406 0.40363C10.0853 0.773229 11.0025 1.38336 11.7381 2.18242C12.4737 2.98148 13.006 3.94596 13.2901 4.99428C13.5741 6.04259 13.6015 7.1439 13.37 8.20504C13.1384 9.26619 12.6547 10.256 11.9598 11.0906L15.8043 14.9354C15.8647 14.9916 15.9132 15.0595 15.9468 15.1349C15.9804 15.2104 15.9984 15.2918 15.9999 15.3743C16.0014 15.4569 15.9862 15.5389 15.9553 15.6154C15.9243 15.692 15.8783 15.7615 15.8199 15.8199C15.7616 15.8783 15.692 15.9243 15.6155 15.9553C15.5389 15.9862 15.4569 16.0014 15.3744 15.9999C15.2918 15.9984 15.2104 15.9804 15.135 15.9468C15.0596 15.9132 14.9917 15.8647 14.9354 15.8043L11.0909 11.9596C10.1033 12.7822 8.90176 13.3064 7.627 13.4706C6.35224 13.6349 5.05707 13.4325 3.89322 12.8871C2.72936 12.3417 1.74502 11.4759 1.05551 10.3911C0.365991 9.30639 -0.000141271 8.0476 4.08899e-08 6.76223Z" fill="white"/>
</svg>
