<?xml version="1.0" encoding="utf-8"?><svg viewBox="0 0 25 25" xmlns="http://www.w3.org/2000/svg" xmlns:xlink="http://www.w3.org/1999/xlink"><style>:root>svg{display:none}:root>svg:target{display:block}</style><svg viewBox="0 0 12 6" id="arrow" xmlns="http://www.w3.org/2000/svg"><path d="M10.692.392a.156.156 0 01.229 0 .155.155 0 010 .228L5.89 5.562l-.002.002a.385.385 0 01-.086.07.054.054 0 01-.028.007c-.042 0-.079-.01-.137-.054L.628.664H.63a.155.155 0 010-.229.155.155 0 01.173-.037l.055.037.003.003 4.68 4.573.235.228.233-.23L10.69.394h.002z"/></svg><svg viewBox="0 0 18 10" id="arrow-faq" xmlns="http://www.w3.org/2000/svg"><path d="M9 9.675a.843.843 0 01-.55-.206L.544 1.7a.768.768 0 010-1.1c.31-.31.79-.31 1.1 0L9 7.784 16.356.531a.769.769 0 011.1 0c.31.31.31.791 0 1.1L9.55 9.401c-.172.171-.344.274-.55.274z"/></svg><svg viewBox="0 0 12 12" id="arrow-right" xmlns="http://www.w3.org/2000/svg"><path d="M3.882 10.744a.46.46 0 01-.3-.113.419.419 0 010-.6L7.519 6 3.582 1.987a.419.419 0 010-.6.419.419 0 01.6 0L8.419 5.7a.419.419 0 010 .6l-4.237 4.312a.443.443 0 01-.3.132z"/></svg><svg viewBox="0 0 24 24" id="calendar" xmlns="http://www.w3.org/2000/svg"><path fill-rule="evenodd" clip-rule="evenodd" d="M6.75 2.25A.75.75 0 017.5 3v1.5h9V3A.75.75 0 1118 3v1.5h.75a3 3 0 013 3v11.25a3 3 0 01-3 3H5.25a3 3 0 01-3-3V7.5a3 3 0 013-3H6V3a.75.75 0 01.75-.75zm13.5 9a1.5 1.5 0 00-1.5-1.5H5.25a1.5 1.5 0 00-1.5 1.5v7.5a1.5 1.5 0 001.5 1.5h13.5a1.5 1.5 0 001.5-1.5v-7.5z"/></svg><svg viewBox="0 0 16 16" id="eye" xmlns="http://www.w3.org/2000/svg"><path d="M8 10a2 2 0 100-4 2 2 0 000 4z"/><path fill-rule="evenodd" clip-rule="evenodd" d="M.882 7.631a7.504 7.504 0 0114.235-.004c.08.241.08.501 0 .742a7.504 7.504 0 01-14.235.004c-.08-.24-.08-.5 0-.742zM11.5 8a3.5 3.5 0 11-7 0 3.5 3.5 0 017 0z"/></svg><svg viewBox="0 0 16 16" id="eye-off" xmlns="http://www.w3.org/2000/svg"><path d="M2.353 1.647a.5.5 0 00-.707.706l12 12a.5.5 0 10.707-.706l-12-12zm12.764 6.722a7.5 7.5 0 01-1.754 2.873l-2.066-2.066a3.5 3.5 0 00-4.474-4.473L5.172 3.05a7.504 7.504 0 019.945 4.575c.08.242.08.502 0 .743z"/><path d="M10.5 8c0 .12-.008.238-.024.353l-2.83-2.828A2.5 2.5 0 0110.502 8zm-2.146 2.475L5.525 7.646a2.5 2.5 0 002.83 2.829h-.001z"/><path d="M4.5 8c0-.413.07-.809.202-1.176L2.636 4.757A7.5 7.5 0 00.882 7.631c-.08.241-.08.501 0 .742a7.503 7.503 0 009.945 4.576l-1.651-1.652A3.5 3.5 0 014.5 8z"/></svg><svg viewBox="0 0 16 16" id="facebook" xmlns="http://www.w3.org/2000/svg"><path d="M11.85 6.45h-1.9V3.9h1.55c.275 0 .5-.2.5-.5V.75c0-.275-.2-.5-.5-.5H9.675c-1.975 0-3.35 1.4-3.35 3.475V6.4h-2.2a.672.672 0 00-.675.675v1.8c0 .35.275.675.675.675h2.15v5.525c0 .35.275.675.675.675H9.3c.15 0 .275-.075.375-.175.1-.1.175-.275.175-.425V9.575h1.65c.325 0 .575-.2.625-.5v-.05l.35-1.725a.748.748 0 00-.15-.575c-.05-.125-.275-.25-.475-.275z"/></svg><svg viewBox="0 0 25 25" id="gg_facebook" xmlns="http://www.w3.org/2000/svg"><path d="M9.698 21.523h4v-8.01h3.604l.396-3.98h-4v-2.01a1 1 0 011-1h3v-4h-3a5 5 0 00-5 5v2.01h-2l-.396 3.98h2.396v8.01z"/></svg><svg viewBox="0 0 25 25" id="google" xmlns="http://www.w3.org/2000/svg"><g clip-path="url(#ia)"><path d="M8.861.812a11.865 11.865 0 00.812 22.67 12.68 12.68 0 006.067.065 10.712 10.712 0 004.857-2.524 10.77 10.77 0 003-4.924c.58-2.048.683-4.202.301-6.296h-11.16v4.63h6.464a5.573 5.573 0 01-2.374 3.66 6.788 6.788 0 01-2.612 1.03 7.743 7.743 0 01-2.831 0 6.976 6.976 0 01-2.635-1.149 7.369 7.369 0 01-2.718-3.641 7.181 7.181 0 010-4.618 7.36 7.36 0 011.72-2.796 6.97 6.97 0 017.023-1.833 6.43 6.43 0 012.557 1.5c.729-.725 1.456-1.452 2.183-2.181.375-.392.784-.765 1.153-1.166A11.475 11.475 0 0016.85.884 12 12 0 008.861.812z"/><path d="M8.86.813a12 12 0 017.99.07 11.475 11.475 0 013.816 2.366c-.375.401-.77.776-1.153 1.166-.728.726-1.455 1.45-2.181 2.171a6.432 6.432 0 00-2.558-1.5 6.97 6.97 0 00-7.023 1.827 7.36 7.36 0 00-1.722 2.795l-3.886-3.01A11.912 11.912 0 018.86.814zM1.111 9.68a11.813 11.813 0 011.032-2.982L6.03 9.715a7.181 7.181 0 000 4.618c-1.295 1-2.591 2.005-3.887 3.015A11.874 11.874 0 011.11 9.68zM12.738 9.802h11.16a13.931 13.931 0 01-.302 6.296 10.77 10.77 0 01-3 4.924c-1.254-.979-2.514-1.95-3.768-2.929a5.573 5.573 0 002.373-3.664h-6.463c-.002-1.541 0-3.084 0-4.627z"/><path d="M2.14 17.348c1.297-1 2.592-2.005 3.887-3.015a7.369 7.369 0 002.723 3.641c.791.56 1.69.948 2.64 1.14a7.748 7.748 0 002.831 0 6.788 6.788 0 002.612-1.031c1.255.979 2.515 1.95 3.769 2.929a10.712 10.712 0 01-4.856 2.525 12.67 12.67 0 01-6.068-.065 11.813 11.813 0 01-4.312-2.173 11.943 11.943 0 01-3.225-3.951z"/></g><defs><clipPath id="ia"><path transform="translate(.5 .023)" d="M0 0h24v24H0z"/></clipPath></defs></svg><svg viewBox="0 0 12 12" id="home" xmlns="http://www.w3.org/2000/svg"><path d="M10.575 11.681H8.118c-.6 0-1.106-.487-1.106-1.106V8.588a.256.256 0 00-.262-.263h-1.5a.256.256 0 00-.263.263v1.987c0 .619-.487 1.106-1.106 1.106H1.425c-.6 0-1.107-.487-1.107-1.106V4.256c0-.319.15-.6.413-.769L5.512.47a.883.883 0 01.956 0l4.782 3.037c.262.169.412.45.412.769v6.3c.019.6-.487 1.106-1.087 1.106zm-5.325-4.2h1.5c.618 0 1.106.488 1.106 1.107v1.987c0 .15.112.263.262.263h2.457c.15 0 .262-.113.262-.263V4.256c0-.019-.019-.037-.019-.056l-4.8-3.019c-.018-.018-.037-.018-.056 0L1.2 4.2c-.02.019-.038.037-.038.056v6.319c0 .15.113.263.263.263H3.88c.15 0 .262-.113.262-.263V8.588c0-.6.488-1.107 1.107-1.107z"/></svg><svg viewBox="0 0 16 16" id="linkedin" xmlns="http://www.w3.org/2000/svg"><path d="M4.626 3.334a1.333 1.333 0 11-2.666-.002 1.333 1.333 0 012.666.002zm.04 2.32H2V14h2.666V5.654zm4.214 0H6.226V14h2.627V9.62c0-2.44 3.18-2.666 3.18 0V14h2.633V8.714c0-4.114-4.706-3.96-5.813-1.94l.027-1.12z"/></svg><svg viewBox="0 0 16 16" id="out" xmlns="http://www.w3.org/2000/svg"><path d="M14.473 7.533l-1.5-1.5a.677.677 0 00-.973.94l.36.36H6.773a.667.667 0 000 1.334H12.4l-.36.36a.668.668 0 10.94.94l1.487-1.487a.667.667 0 00.006-.947z"/><path d="M5.44 8a1.333 1.333 0 011.333-1.333h4.174V4A2.667 2.667 0 008.28 1.333H4A2.667 2.667 0 001.333 4v8A2.667 2.667 0 004 14.667h4.28A2.667 2.667 0 0010.947 12V9.333H6.773A1.333 1.333 0 015.44 8z"/></svg><svg viewBox="0 0 20 21" id="phone" xmlns="http://www.w3.org/2000/svg"><g clip-path="url(#ma)"><path d="M15.188 20.422c-.844 0-1.813-.219-2.875-.625-2.125-.844-4.47-2.469-6.563-4.563-2.094-2.093-3.719-4.437-4.562-6.593-.938-2.313-.844-4.22.25-5.282.03-.03.093-.062.125-.093l2.625-1.563a1.477 1.477 0 011.937.438L7.97 4.89c.437.656.25 1.53-.375 1.968L6.47 7.64c.812 1.312 3.125 4.53 6.812 6.843l.688-1c.531-.75 1.375-.968 2.062-.5l2.75 1.844c.625.438.813 1.281.438 1.938l-1.563 2.625c-.03.062-.062.093-.093.125-.563.593-1.375.906-2.375.906zm-12.813-16c-.594.656-.562 2 .125 3.719.781 1.968 2.281 4.125 4.25 6.093 1.938 1.938 4.125 3.438 6.063 4.22 1.687.687 3.03.718 3.718.124l1.5-2.562v-.063l-2.75-1.844s-.062.032-.125.125l-.687 1c-.438.625-1.281.813-1.906.407-3.938-2.438-6.375-5.844-7.25-7.22-.407-.655-.25-1.5.375-1.937l1.125-.78v-.032l-1.844-2.75c0-.031-.031-.031-.063 0l-2.53 1.5zM18.313 9.86c-.375 0-.656-.282-.688-.657-.25-3.156-2.844-5.687-6.031-5.906a.703.703 0 01-.656-.75.703.703 0 01.75-.656c3.875.25 7.031 3.312 7.344 7.187a.7.7 0 01-.657.75c0 .032-.031.032-.062.032z"/><path d="M15.219 10.141a.681.681 0 01-.688-.625c-.187-1.687-1.5-3-3.187-3.219-.375-.031-.656-.406-.625-.781.031-.375.406-.656.781-.625a5.048 5.048 0 014.438 4.438.722.722 0 01-.625.78c-.063.032-.094.032-.094.032z"/></g><defs><clipPath id="ma"><path transform="translate(0 .953)" d="M0 0h20v20H0z"/></clipPath></defs></svg><svg viewBox="0 0 16 16" id="search" xmlns="http://www.w3.org/2000/svg"><path fill-rule="evenodd" clip-rule="evenodd" d="M6.763 1.229a5.533 5.533 0 100 11.065 5.533 5.533 0 000-11.065zM0 6.762a6.763 6.763 0 1111.96 4.329l3.844 3.844a.614.614 0 11-.869.87l-3.844-3.845A6.762 6.762 0 010 6.762z"/></svg><svg viewBox="0 0 17 16" id="star" xmlns="http://www.w3.org/2000/svg"><g clip-path="url(#oa)"><path d="M4.525 15.55c-.225 0-.45-.075-.625-.2-.35-.25-.55-.7-.475-1.125l.65-4.025-2.8-2.875c-.3-.3-.4-.75-.275-1.175.125-.4.475-.7.875-.75l3.875-.625L7.5 1.1c.2-.4.575-.65 1-.65.425 0 .825.25 1 .65l1.75 3.65 3.85.6c.4.075.75.35.875.75.15.425.025.875-.275 1.175l-2.775 2.9.65 4.05c.075.45-.1.875-.475 1.125-.35.25-.775.275-1.15.075L8.5 13.55l-3.45 1.875c-.15.1-.35.125-.525.125zM2.075 6.5v.05L5 9.55c.175.175.25.45.225.7l-.675 4.175v.025l3.6-1.95a.796.796 0 01.75 0l3.6 1.95v-.025l-.675-4.2c-.05-.25.05-.5.225-.7l2.925-3c.025-.025 0-.05 0-.05L10.95 5.85c-.25-.05-.475-.2-.575-.45L8.5 1.6 6.7 5.425c-.1.225-.325.4-.575.45l-4.05.625z"/></g><defs><clipPath id="oa"><path transform="translate(.5)" d="M0 0h16v16H0z"/></clipPath></defs></svg><svg viewBox="0 0 17 16" id="star-fill" xmlns="http://www.w3.org/2000/svg"><path d="M15.425 5.975l-4.525-.7-2.05-4.3c-.15-.3-.55-.3-.7 0L6.1 5.3l-4.5.675c-.325.05-.45.475-.2.7l3.275 3.375-.775 4.725c-.05.325.275.6.575.4L8.55 12.95l4.05 2.225c.275.15.625-.1.55-.4l-.775-4.725 3.275-3.375c.2-.225.1-.65-.225-.7z"/></svg><svg viewBox="0 0 16 16" id="twitter" xmlns="http://www.w3.org/2000/svg"><path d="M14.635 4.3c.09-.104-.027-.24-.159-.191-.294.108-.563.18-.96.224.489-.272.716-.662.901-1.138.045-.115-.09-.22-.206-.165-.47.223-.979.389-1.513.487a2.997 2.997 0 00-2.113-.85c-1.6 0-2.896 1.205-2.896 2.692 0 .211.026.417.075.614-2.299-.107-4.348-1.09-5.772-2.598-.098-.103-.275-.09-.336.036-.162.337-.252.71-.252 1.102 0 .934.511 1.758 1.288 2.241a3.074 3.074 0 01-.989-.193c-.149-.056-.32.042-.3.193.154 1.157 1.09 2.112 2.3 2.338a3.092 3.092 0 01-.954.088c-.16-.01-.29.134-.222.271.454.906 1.433 1.538 2.573 1.557a6.09 6.09 0 01-3.595 1.153c-.168 0-.24.215-.091.288a8.685 8.685 0 003.838.884c5.326 0 8.238-4.103 8.238-7.661a8.09 8.09 0 00-.008-.349c.432-.29.82-.636 1.153-1.023z"/></svg><svg viewBox="0 0 24 25" id="twitter-x" xmlns="http://www.w3.org/2000/svg"><path d="M18.9 1.148h3.681l-8.04 9.213L24 22.898h-7.405l-5.801-7.605-6.638 7.605H.475l8.6-9.855L0 1.148h7.595l5.242 6.95 6.063-6.95zM17.61 20.69h2.04L6.485 3.24H4.296L17.61 20.69z"/></svg><svg viewBox="0 0 16 16" id="youtube" xmlns="http://www.w3.org/2000/svg"><path d="M15.425 4.275c-.175-.675-.7-1.2-1.375-1.375C12.85 2.575 8 2.575 8 2.575s-4.85 0-6.05.325c-.675.175-1.2.7-1.375 1.375C.25 5.5.25 8 .25 8s0 2.525.325 3.725c.175.675.7 1.2 1.375 1.375 1.2.325 6.05.325 6.05.325s4.85 0 6.05-.325c.675-.175 1.2-.7 1.375-1.375.325-1.2.325-3.725.325-3.725s0-2.5-.325-3.725zm-8.975 6.05v-4.65L10.475 8 6.45 10.325z"/></svg></svg>